<?xml version="1.0" encoding="UTF-8"?>
<svg version="1.1" xmlns="http://www.w3.org/2000/svg" width="242" height="232">
<path d="M0 0 C79.86 0 159.72 0 242 0 C242 76.56 242 153.12 242 232 C162.14 232 82.28 232 0 232 C0 155.44 0 78.88 0 0 Z " fill="#FAFBF9" transform="translate(0,0)"/>
<path d="M0 0 C0.96228516 -0.00773437 1.92457031 -0.01546875 2.91601562 -0.0234375 C4.29370117 -0.01957031 4.29370117 -0.01957031 5.69921875 -0.015625 C6.95545044 -0.01224121 6.95545044 -0.01224121 8.23706055 -0.00878906 C10.3125 0.25 10.3125 0.25 12.3125 2.25 C12.51218426 4.18123211 12.62528815 6.1219689 12.6875 8.0625 C12.96307776 11.76502053 13.24386938 14.10130033 14.8125 17.5 C18.51040787 20.08853551 21.93310081 19.81456343 26.3125 19.25 C27.3025 18.92 28.2925 18.59 29.3125 18.25 C30.74246426 13.96010722 30.69794316 9.68101037 30.93359375 5.18359375 C31.3125 2.25 31.3125 2.25 33.3125 0.25 C35.59632874 0.00276184 35.59632874 0.00276184 38.48071289 0.00708008 C39.55845474 0.00400345 40.63619659 0.00092682 41.74659729 -0.00224304 C42.91432175 0.00494247 44.0820462 0.01212799 45.28515625 0.01953125 C46.47854111 0.01998947 47.67192596 0.02044769 48.901474 0.0209198 C51.42757154 0.02394494 53.95366717 0.031839 56.47973633 0.04418945 C60.36220858 0.06243987 64.24444248 0.06469924 68.12695312 0.06445312 C70.57552291 0.0693683 73.02409107 0.07519662 75.47265625 0.08203125 C77.22727928 0.08370049 77.22727928 0.08370049 79.01734924 0.08540344 C80.62923378 0.09497322 80.62923378 0.09497322 82.27368164 0.10473633 C83.22473282 0.10854813 84.175784 0.11235992 85.15565491 0.11628723 C87.3125 0.25 87.3125 0.25 88.3125 1.25 C88.55864688 4.22199571 88.69653575 7.1930797 88.8359375 10.171875 C89.35879125 13.54899594 90.30827289 15.5052949 92.3125 18.25 C95.55575093 19.87162547 98.80721241 19.79392394 102.3125 19.25 C105.51549181 17.71784527 105.51549181 17.71784527 107.3125 14.25 C107.83718868 10.82063481 108.06304701 7.48257375 108.171875 4.015625 C108.3125 1.25 108.3125 1.25 109.3125 0.25 C120.94810316 -0.56530753 130.94558647 -1.06667172 140.203125 6.87109375 C145.55548352 12.68615616 145.29125768 19.68773257 145.3125 27.25 C140.04219965 28.84346868 134.78711421 30.00200803 129.37890625 31.01953125 C127.66064734 31.35399704 125.94255311 31.68930972 124.22460938 32.02539062 C121.54917088 32.54654809 118.87322131 33.06283319 116.1940918 33.56469727 C113.58583736 34.0552878 110.98241176 34.56690751 108.37890625 35.08203125 C107.19416466 35.2963958 107.19416466 35.2963958 105.98548889 35.51509094 C98.96765688 36.93543033 93.05511379 39.84506441 88.45703125 45.453125 C85.73781619 49.69033194 84.88248778 54.09929416 84 59 C83.70814819 60.49901855 83.70814819 60.49901855 83.41040039 62.02832031 C82.83012493 65.04021582 82.26836983 68.05500137 81.71411133 71.07177734 C81.27256195 73.46661231 80.82526755 75.8603286 80.37695312 78.25390625 C78.99360455 85.63990407 77.61051329 93.02589265 76.25463867 100.41699219 C75.92902453 102.18948084 75.60326077 103.96194201 75.27734375 105.734375 C75.11811432 106.60078613 74.95888489 107.46719727 74.79483032 108.35986328 C73.47638311 115.48095488 72.06187447 122.5811499 70.58384705 129.6708374 C68.21454808 140.98948613 68.21454808 140.98948613 71.5 151.75 C73.62262455 154.93056758 75.89524891 156.54297552 79.3125 158.25 C82.72333863 158.71985898 82.72333863 158.71985898 86.48950195 158.68237305 C87.19248917 158.6925647 87.89547638 158.70275635 88.61976624 158.71325684 C90.93018641 158.74331367 93.2401915 158.7526412 95.55078125 158.76171875 C97.1579068 158.77857093 98.76501921 158.7967219 100.37211609 158.81611633 C104.5921315 158.86356421 108.81209363 158.89340713 113.0322876 158.91955566 C117.34259562 158.94938759 121.65272018 158.99590886 125.96289062 159.04101562 C134.41267017 159.1269894 142.86246652 159.19436086 151.3125 159.25 C151.6425 160.24 151.9725 161.23 152.3125 162.25 C148.96616016 168.29915279 144.88100127 172.09682065 138.3125 174.25 C135.12712383 174.50726891 135.12712383 174.50726891 131.46305847 174.51742554 C130.44831254 174.52422221 130.44831254 174.52422221 129.41306669 174.53115618 C127.15315605 174.54378545 124.89348687 174.54218079 122.63354492 174.54052734 C121.01033723 174.54651355 119.38713238 174.55331932 117.76393127 174.56088257 C113.35885677 174.57854116 108.95385998 174.58323791 104.5487535 174.58451414 C101.79496374 174.58593647 99.04119369 174.59020764 96.28740883 174.59550858 C86.67556124 174.61400895 77.0637691 174.62217925 67.4519043 174.62060547 C58.50015967 174.61940432 49.54865625 174.64050132 40.59697264 174.6720928 C32.9050792 174.69826844 25.21326447 174.70897221 17.52132684 174.70769465 C12.93014407 174.70718536 8.33917565 174.71285013 3.74803734 174.73405075 C-0.5719315 174.75345469 -4.891482 174.753543 -9.21146584 174.73901749 C-10.79325982 174.7369309 -12.37508013 174.74162138 -13.95682907 174.7537384 C-28.85597677 174.86044356 -28.85597677 174.86044356 -35.6875 170.25 C-41.69470915 164.0847064 -42.05445436 158.16013916 -41.94921875 149.87890625 C-41.58618858 141.50709889 -40.24609241 133.20466705 -39.06347656 124.91796875 C-38.56587387 121.38692836 -38.1225406 117.85181337 -37.6875 114.3125 C-37.53152344 113.05695313 -37.37554687 111.80140625 -37.21484375 110.5078125 C-37.13218262 109.84040039 -37.04952148 109.17298828 -36.96435547 108.48535156 C-36.52171008 104.91139993 -36.07804319 101.33757694 -35.63305664 97.76391602 C-35.37502145 95.69157603 -35.11771173 93.6191456 -34.86108398 91.54663086 C-34.26007113 86.71795819 -33.64609016 81.89282411 -32.96875 77.07421875 C-32.72820998 75.34127836 -32.48864565 73.60820229 -32.25 71.875 C-32.1274585 70.9890918 -32.00491699 70.10318359 -31.87866211 69.19042969 C-30.98847823 62.41207992 -30.35576731 55.6273749 -29.78515625 48.81640625 C-29.62244954 46.92821101 -29.4596064 45.04002752 -29.29663086 43.15185547 C-28.97374239 39.40097904 -28.6782772 35.6491968 -28.39672852 31.89501953 C-26.73506454 11.51698422 -26.73506454 11.51698422 -18.6875 4.25 C-12.4289344 0.07762293 -7.35452686 -0.05983344 0 0 Z " fill="#052349" transform="translate(60.6875,56.75)"/>
<path d="M0 0 C37.95 0 75.9 0 115 0 C115 0.33 115 0.66 115 1 C114.18917969 1.1959375 113.37835938 1.391875 112.54296875 1.59375 C99.52842081 5.1087385 90.75521379 11.29681673 84 23 C78.95769231 32.17270867 78.20939233 40.416325 78.34814453 50.63916016 C78.37528814 53.02533035 78.34810308 55.40692889 78.31640625 57.79296875 C78.3197052 59.32032281 78.32610075 60.84767405 78.3359375 62.375 C78.32581635 63.08229248 78.31569519 63.78958496 78.30526733 64.51831055 C78.3971446 68.37562913 78.72824069 69.73518478 81.54150391 72.4765625 C82.35280762 72.97929688 83.16411133 73.48203125 84 74 C81.83409519 75.31501363 80.49878708 76.03022952 77.9375 75.875 C75.32523898 74.69526922 74.48891272 73.4487077 73 71 C72.5234375 68.01953125 72.5234375 68.01953125 72.375 64.8125 C72.50923278 61.09066184 72.50923278 61.09066184 71 58 C67.65521315 57.69073199 64.29480774 57.7214122 60.9375 57.6875 C60.00744141 57.65849609 59.07738281 57.62949219 58.11914062 57.59960938 C51.89209178 57.54272137 47.12622984 58.30121012 42 62 C39.90004301 64.14805352 39.90004301 64.14805352 38.5625 66.5625 C38.08941406 67.32691406 37.61632813 68.09132813 37.12890625 68.87890625 C35.4161297 72.09702967 34.82496586 74.9439743 34.50683594 78.52685547 C34.42275482 79.44964294 34.33867371 80.37243042 34.25204468 81.32318115 C34.16371368 82.32770325 34.07538269 83.33222534 33.984375 84.3671875 C33.78604755 86.53665797 33.58729951 88.70609003 33.38818359 90.87548828 C33.28431335 92.0176178 33.18044312 93.15974731 33.07342529 94.33648682 C31.15654242 115.30861075 28.80792561 136.14950585 25.83183289 156.99484253 C24.71578826 164.87973115 23.83171022 172.78979086 22.95922852 180.70483398 C22.38106587 185.89816203 21.70718025 191.0368755 20.8125 196.1875 C19.40393534 205.02413644 17.84536466 215.5001966 22.72265625 223.484375 C25.57799172 226.87235715 28.86586226 228.62195409 33 230 C35.21911693 230.10390042 37.44124857 230.14648207 39.6627655 230.15821838 C40.34319847 230.16315636 41.02363144 230.16809434 41.72468358 230.17318195 C44.00940572 230.18856535 46.29409973 230.19691983 48.57885742 230.20532227 C50.21474963 230.21490013 51.85063937 230.22491016 53.48652649 230.23532104 C57.93247219 230.26238611 62.37842853 230.28338701 66.82441115 230.30332303 C71.46892347 230.32517269 76.11340295 230.35256637 80.75788879 230.37937927 C89.55509721 230.42931995 98.35232383 230.47425368 107.1495679 230.51740164 C117.16397888 230.56676226 127.17835691 230.62168474 137.19273603 230.67708123 C157.79512667 230.79092239 178.39754875 230.89775679 199 231 C199 231.33 199 231.66 199 232 C133.33 232 67.66 232 0 232 C0 155.44 0 78.88 0 0 Z " fill="#FBFBFC" transform="translate(0,0)"/>
<path d="M0 0 C3.05005194 2.7372261 4.35290936 4.26459085 4.73144531 8.39453125 C4.54531777 15.29888336 2.9970004 22.10278887 1.734375 28.875 C1.45182639 30.42020679 1.16995917 31.96553832 0.88873291 33.51098633 C0.14668492 37.57990983 -0.60343886 41.64730044 -1.35565186 45.71435547 C-2.54413249 52.14818785 -3.7198021 58.58437634 -4.89659119 65.02035522 C-5.32622142 67.36461319 -5.75868164 69.70833599 -6.19152832 72.05200195 C-7.45040395 78.89272491 -8.6725461 85.73100618 -9.73632812 92.60546875 C-9.90872009 93.71059814 -10.08111206 94.81572754 -10.25872803 95.9543457 C-10.56287676 97.94183063 -10.85525909 99.93117481 -11.13238525 101.92260742 C-11.98779849 107.52625929 -13.16084356 111.59122297 -16.5625 116.1875 C-21.03662506 118.94810557 -24.46464437 119.57490017 -29.68188477 119.62329102 C-30.36723297 119.63336685 -31.05258118 119.64344269 -31.75869751 119.65382385 C-34.00726956 119.68214835 -36.25516733 119.68817123 -38.50390625 119.69140625 C-40.07519298 119.70105446 -41.64647703 119.71114747 -43.21775818 119.72166443 C-46.50355277 119.73958416 -49.7891112 119.7451894 -53.07495117 119.7434082 C-57.28091283 119.74310271 -61.48536207 119.78414084 -65.6909647 119.83572483 C-68.93298783 119.86910407 -72.17464506 119.87516548 -75.41682243 119.87357903 C-76.9673785 119.87711341 -78.51794461 119.89035148 -80.06833076 119.91357613 C-82.23746767 119.94304218 -84.40331777 119.93433131 -86.57250977 119.91625977 C-88.42067039 119.92267235 -88.42067039 119.92267235 -90.3061676 119.92921448 C-94.94053508 118.87361664 -95.98471739 117.1317551 -98.5625 113.1875 C-99.14803607 107.54580985 -98.23835709 102.30301239 -97.171875 96.76171875 C-97.02730362 95.98090439 -96.88273224 95.20009003 -96.73377991 94.39561462 C-96.26718964 91.88733961 -95.79012283 89.38119536 -95.3125 86.875 C-94.98745942 85.14053995 -94.66283517 83.40600182 -94.33862305 81.67138672 C-92.64716394 72.66537619 -90.89037159 63.67917847 -88.91552734 54.73046875 C-87.30361523 47.29785992 -86.12367154 39.79142424 -84.95629883 32.27783203 C-82.87400822 19.16630204 -82.87400822 19.16630204 -78.6875 14.4375 C-78.19507813 13.86515625 -77.70265625 13.2928125 -77.1953125 12.703125 C-73.98108188 9.71958079 -70.56947319 8.85269881 -66.3203125 8.109375 C-65.2684375 7.92076904 -64.2165625 7.73216309 -63.1328125 7.5378418 C-61.99585938 7.339729 -60.85890625 7.14161621 -59.6875 6.9375 C-51.93463292 5.55630896 -44.19995985 4.14002431 -36.4921875 2.52734375 C-35.82760529 2.38940399 -35.16302307 2.25146423 -34.478302 2.10934448 C-31.25889444 1.44074254 -28.04245788 0.76251803 -24.82861328 0.06738281 C-7.10279873 -3.61370461 -7.10279873 -3.61370461 0 0 Z " fill="#71B418" transform="translate(234.5625,89.8125)"/>
<path d="M0 0 C9.05174847 7.58204121 15.17867593 17.44254064 17.38671875 29.09375 C17.72882509 34.47775935 17.67265479 39.82767454 17.57421875 45.21875 C17.55913643 46.66665266 17.54545433 48.11457062 17.53320312 49.5625 C17.50049724 53.07323994 17.44891386 56.58339399 17.38671875 60.09375 C18.04671875 60.09375 18.70671875 60.09375 19.38671875 60.09375 C19.71671875 61.41375 20.04671875 62.73375 20.38671875 64.09375 C17.54366888 66.93679987 15.38405811 68.42155773 11.38671875 68.65625 C7.92019291 68.49242553 7.34339415 68.0587216 4.44921875 65.71875 C1.47979265 61.93948041 1.17853384 59.72669554 0.82421875 54.96875 C0.74042969 53.87304688 0.65664062 52.77734375 0.5703125 51.6484375 C0.50972656 50.80539063 0.44914062 49.96234375 0.38671875 49.09375 C-7.28539327 49.06848395 -14.95749465 49.05091877 -22.62963867 49.03881836 C-25.24194744 49.03377623 -27.85425336 49.02694275 -30.46655273 49.01831055 C-34.21208393 49.00623964 -37.95757797 49.00052065 -41.703125 48.99609375 C-43.46715919 48.98835182 -43.46715919 48.98835182 -45.26683044 48.98045349 C-46.34787552 48.98037796 -47.42892059 48.98030243 -48.54272461 48.98022461 C-49.4998082 48.978004 -50.45689178 48.97578339 -51.44297791 48.97349548 C-53.59245749 48.85062501 -53.59245749 48.85062501 -54.61328125 50.09375 C-54.71916138 52.1760592 -54.79786506 54.25977712 -54.86328125 56.34375 C-55.17969837 60.58280871 -55.39089482 62.72542247 -57.61328125 66.40625 C-61.69387412 68.70158349 -65.03704634 68.54240048 -69.61328125 68.09375 C-68.29328125 67.10375 -66.97328125 66.11375 -65.61328125 65.09375 C-66.58575806 64.33964844 -66.58575806 64.33964844 -67.57788086 63.5703125 C-70.27208788 60.29215057 -70.20818606 57.53273133 -70.1796875 53.46875 C-70.18588608 52.7260083 -70.19208466 51.9832666 -70.19847107 51.21801758 C-70.20556686 49.64454453 -70.20239925 48.07099637 -70.18969727 46.49755859 C-70.1759819 44.12841018 -70.20971269 41.76333673 -70.24804688 39.39453125 C-70.32272539 24.97408199 -66.22636579 14.09796737 -56.61328125 3.09375 C-40.46931091 -11.98440482 -17.66831345 -12.88809711 0 0 Z " fill="#F9FAFA" transform="translate(147.61328125,8.90625)"/>
<path d="M0 0 C1.01610352 -0.04350586 1.01610352 -0.04350586 2.05273438 -0.08789062 C5.44195167 -0.13095986 7.33206604 0.05011461 10.08984375 2.0859375 C11.63436249 4.23844528 12.38879275 5.68428555 12.9375 8.25 C13.08703125 8.89839844 13.2365625 9.54679687 13.390625 10.21484375 C13.72837279 12.60129852 13.70635777 14.9049091 13.6875 17.3125 C14.40746658 17.30805878 15.12743317 17.30361755 15.86921692 17.29904175 C22.65240332 17.25897678 29.43557205 17.22852157 36.21884632 17.20887566 C39.70625161 17.19843596 43.19355916 17.18427351 46.6809082 17.16162109 C50.68962546 17.13574488 54.69823997 17.12602877 58.70703125 17.1171875 C59.96022659 17.10686493 61.21342194 17.09654236 62.5045929 17.08590698 C64.24605843 17.08568039 64.24605843 17.08568039 66.02270508 17.08544922 C67.04640701 17.081008 68.07010895 17.07656677 69.12483215 17.07199097 C71.6875 17.3125 71.6875 17.3125 74.6875 19.3125 C75.48092788 27.10251917 73.53925934 34.08099369 71.5 41.5625 C71.20802734 42.72007812 70.91605469 43.87765625 70.61523438 45.0703125 C70.31552734 46.18664062 70.01582031 47.30296875 69.70703125 48.453125 C69.30641479 49.96181152 69.30641479 49.96181152 68.89770508 51.50097656 C67.30816369 55.19376628 65.97819282 56.95196499 62.6875 59.3125 C59.2430348 59.97977202 55.88028403 59.89163063 52.3828125 59.80859375 C50.3346353 59.81042409 48.28645822 59.81238115 46.23828125 59.81445312 C43.02343806 59.78720037 39.80891241 59.74995237 36.59423828 59.70727539 C33.4816495 59.67457913 30.37053188 59.67783718 27.2578125 59.68359375 C25.82624313 59.64642494 25.82624313 59.64642494 24.36575317 59.60850525 C18.40343377 59.63111469 15.25248302 60.63585519 10.9447937 64.82679749 C9.59182253 66.30684421 9.59182253 66.30684421 8.6875 68.3125 C9.68015114 68.30916908 9.68015114 68.30916908 10.69285583 68.30577087 C17.5541022 68.28372035 24.41533857 68.26859438 31.27661133 68.25756836 C33.84041757 68.2525263 36.40422091 68.24569286 38.96801758 68.23706055 C42.64405021 68.22498936 46.32004498 68.21927058 49.99609375 68.21484375 C51.15024277 68.20968246 52.30439178 68.20452118 53.49351501 68.19920349 C55.0850515 68.19909019 55.0850515 68.19909019 56.70874023 68.19897461 C57.64805893 68.196754 58.58737762 68.19453339 59.55516052 68.19224548 C61.6875 68.3125 61.6875 68.3125 62.6875 69.3125 C62.875 71.75 62.875 71.75 62.6875 74.3125 C60.09413314 76.90586686 59.01049229 76.5795001 55.39916992 76.61889648 C54.29429733 76.63488388 53.18942474 76.65087128 52.05107117 76.66734314 C50.85214737 76.67270584 49.65322357 76.67806854 48.41796875 76.68359375 C47.1896785 76.69262222 45.96138824 76.7016507 44.69587708 76.71095276 C42.0924423 76.72548462 39.48897076 76.73434924 36.88549805 76.73803711 C32.90171772 76.7444698 28.91900914 76.79907347 24.93554688 76.84960938 C22.40886175 76.85907442 19.88216708 76.86630906 17.35546875 76.87109375 C16.16261765 76.89062607 14.96976654 76.91015839 13.74076843 76.93028259 C5.49075138 76.88528569 5.49075138 76.88528569 1.43701172 73.99462891 C-0.90498543 70.40417667 -1.10005552 68.52056294 -0.3125 64.3125 C1.94210663 61.71880053 4.19936586 59.71474506 6.86523438 57.58398438 C8.63970024 56.10672977 8.63970024 56.10672977 10.6875 53.3125 C10.47755231 50.56726668 10.1583229 48.01136277 9.6875 45.3125 C9.50380859 44.06436523 9.32011719 42.81623047 9.13085938 41.53027344 C8.33285899 36.39323515 8.33285899 36.39323515 7.53076172 31.25683594 C7.18622978 29.05438001 6.84497407 26.85143221 6.50390625 24.6484375 C6.28405184 23.23955247 6.06400651 21.83069722 5.84375 20.421875 C5.64587891 19.15311523 5.44800781 17.88435547 5.24414062 16.57714844 C4.82284874 14.10630846 4.35108344 11.72594387 3.6875 9.3125 C2.91664062 9.26351562 2.14578125 9.21453125 1.3515625 9.1640625 C0.34867188 9.08929688 -0.65421875 9.01453125 -1.6875 8.9375 C-3.18410156 8.83308594 -3.18410156 8.83308594 -4.7109375 8.7265625 C-7.3125 8.3125 -7.3125 8.3125 -9.3125 6.3125 C-8.48968806 -0.43455794 -6.16578494 0.08651709 0 0 Z " fill="#F3F4F6" transform="translate(53.3125,105.6875)"/>
<path d="M0 0 C8.9531621 7.49946203 15.46998943 17.25154251 16.57385254 29.1028595 C16.64769343 31.15195986 16.66426779 33.19181649 16.65234375 35.2421875 C16.6542572 35.9807901 16.65617065 36.7193927 16.65814209 37.4803772 C16.65949181 39.02484482 16.65588106 40.56932427 16.64746094 42.11376953 C16.63665077 44.48365306 16.64744397 46.85279447 16.66015625 49.22265625 C16.65883624 50.72916834 16.65627714 52.23567997 16.65234375 53.7421875 C16.65639221 54.45047699 16.66044067 55.15876648 16.66461182 55.88851929 C16.61670598 60.86376277 16.61670598 60.86376277 14.38671875 63.09375 C11.38671875 63.40625 11.38671875 63.40625 8.38671875 63.09375 C5.96252341 59.45745698 6.13444567 57.69978992 6.11328125 53.37109375 C6.09296562 52.01366403 6.0721144 50.65624224 6.05078125 49.29882812 C6.02835226 47.17514372 6.01177593 45.05177521 6.00585938 42.92797852 C5.94985811 30.98710977 4.29058158 21.58239921 -3.41015625 12.140625 C-10.79148244 5.28279712 -20.23029219 2.59987997 -30.0546875 2.6875 C-38.2278192 3.62054687 -45.64416814 8.04552041 -51.1484375 14.1015625 C-56.63247134 21.55984852 -58.68666806 28.65994104 -58.82421875 37.8203125 C-58.85257813 39.0990625 -58.8809375 40.3778125 -58.91015625 41.6953125 C-58.95153886 43.71419267 -58.98846365 45.73281509 -59.01464844 47.75195312 C-59.04222115 49.71246796 -59.08920038 51.67267968 -59.13671875 53.6328125 C-59.15653809 54.80021973 -59.17635742 55.96762695 -59.19677734 57.17041016 C-59.61328125 60.09375 -59.61328125 60.09375 -60.98291016 61.97802734 C-63.28999752 63.55685173 -64.88287657 63.44380188 -67.61328125 63.09375 C-70.45001535 60.2570159 -69.9559601 57.46642932 -69.984375 53.6640625 C-69.99340347 52.91849091 -70.00243195 52.17291931 -70.01173401 51.40475464 C-70.02626578 49.81935649 -70.0351305 48.23389796 -70.03881836 46.6484375 C-70.05056865 44.26193025 -70.09958884 41.87813693 -70.15039062 39.4921875 C-70.30591681 24.99077034 -66.29008656 14.17090932 -56.61328125 3.09375 C-40.46931091 -11.98440482 -17.66831345 -12.88809711 0 0 Z " fill="#082448" transform="translate(147.61328125,8.90625)"/>
<path d="M0 0 C16.83 0 33.66 0 51 0 C49.77327671 6.13361646 48.54643557 12.04887389 46.9375 18.0625 C46.67743164 19.05540039 46.67743164 19.05540039 46.41210938 20.06835938 C45.12555804 24.87444196 45.12555804 24.87444196 44 26 C41.0546443 26.10110353 38.1332244 26.13969279 35.1875 26.1328125 C33.86141724 26.13424759 33.86141724 26.13424759 32.50854492 26.13571167 C30.63557871 26.13639351 28.76261014 26.13453893 26.88964844 26.13037109 C24.01231612 26.12502289 21.13513992 26.13031593 18.2578125 26.13671875 C16.44270799 26.13605797 14.62760357 26.13477681 12.8125 26.1328125 C11.94584717 26.13483673 11.07919434 26.13686096 10.1862793 26.13894653 C4.11495009 26.11495009 4.11495009 26.11495009 3 25 C2.33047208 21.96589952 1.91241451 18.88240196 1.4375 15.8125 C1.29892578 14.96107422 1.16035156 14.10964844 1.01757812 13.23242188 C0.88673828 12.39904297 0.75589844 11.56566406 0.62109375 10.70703125 C0.5017749 9.9488208 0.38245605 9.19061035 0.25952148 8.40942383 C-0.04081428 5.62107612 0 2.8044758 0 0 Z " fill="#042247" transform="translate(69,131)"/>
<path d="M0 0 C0.85980469 -0.03673828 1.71960938 -0.07347656 2.60546875 -0.11132812 C8.58054343 -0.15212909 11.927364 1.18269115 16.53564453 4.97680664 C18.63434833 7.07067472 20.02784392 8.76096235 20.390625 11.75390625 C20.38546875 12.53636719 20.3803125 13.31882813 20.375 14.125 C20.38273437 15.30255859 20.38273437 15.30255859 20.390625 16.50390625 C20.125 18.5625 20.125 18.5625 18.125 20.5625 C15.13537897 20.76256302 12.2403765 20.84222923 9.25 20.828125 C7.92959717 20.83099518 7.92959717 20.83099518 6.58251953 20.83392334 C4.71972366 20.83528552 2.85691831 20.83158682 0.99414062 20.82324219 C-1.86349736 20.81254307 -4.72050666 20.82313632 -7.578125 20.8359375 C-9.38541806 20.83461591 -11.19271073 20.83205353 -13 20.828125 C-13.85835449 20.83217346 -14.71670898 20.83622192 -15.60107422 20.84039307 C-21.64508255 20.79241745 -21.64508255 20.79241745 -23.875 18.5625 C-23.9937566 12.62466983 -21.82050781 9.71995802 -17.95703125 5.359375 C-12.33552201 0.50779104 -7.12662544 0.01588401 0 0 Z " fill="#F8FBF5" transform="translate(187.875,138.4375)"/>
<path d="M0 0 C3.66143529 1.59192838 6.16390091 3.42443861 8 7 C8.73086733 13.36898677 7.83431518 16.85394541 4 22 C-0.69925958 25.31084198 -4.44814784 25.44773001 -10 25 C-12.84186214 24.15512207 -13.79789836 23.2309733 -15.75 21 C-17.57078267 16.6301216 -17.8130952 12.66224315 -17 8 C-13.1452701 0.77791985 -7.62509717 -0.87259035 0 0 Z " fill="#F9FBF6" transform="translate(195,111)"/>
<path d="M0 0 C0.88602402 0.00222061 1.77204803 0.00444122 2.68492126 0.00672913 C3.68588333 0.00680466 4.6868454 0.00688019 5.71813965 0.00695801 C6.80666733 0.01211929 7.89519501 0.01728058 9.01670837 0.02259827 C10.67928932 0.02472069 10.67928932 0.02472069 12.37545776 0.02688599 C15.93168281 0.03250418 19.48784596 0.04505977 23.04405212 0.05775452 C25.44834809 0.06276717 27.85264504 0.06733048 30.25694275 0.07142639 C36.16516716 0.08247952 42.07335522 0.09923535 47.98155212 0.12025452 C48.36373979 1.77640109 48.69550314 3.44482476 48.98155212 5.12025452 C47.98155212 6.12025452 47.98155212 6.12025452 45.96310425 6.24050903 C45.07708023 6.23828842 44.19105621 6.23606781 43.27818298 6.23377991 C42.27722092 6.23370438 41.27625885 6.23362885 40.2449646 6.23355103 C39.15643692 6.22838974 38.06790924 6.22322845 36.94639587 6.21791077 C35.83800858 6.21649582 34.72962128 6.21508087 33.58764648 6.21362305 C30.03142143 6.20800485 26.47525829 6.19544926 22.91905212 6.18275452 C20.51475616 6.17774186 18.1104592 6.17317855 15.7061615 6.16908264 C9.79793709 6.15802951 3.88974903 6.14127368 -2.01844788 6.12025452 C-2.40063555 4.46410794 -2.73239889 2.79568427 -3.01844788 1.12025452 C-2.01844788 0.12025452 -2.01844788 0.12025452 0 0 Z " fill="#F3FAED" transform="translate(160.01844787597656,169.87974548339844)"/>
<path d="M0 0 C1.6874269 0.00015917 3.37485866 0.00585622 5.06225586 0.01586914 C6.39189613 0.01799156 6.39189613 0.01799156 7.74839783 0.02015686 C10.59133215 0.02577324 13.43418892 0.03832848 16.27709961 0.05102539 C18.19962452 0.05603828 20.12215065 0.06060155 22.04467773 0.06469727 C26.7680151 0.07574798 31.49129419 0.09302356 36.21459961 0.11352539 C36.59678728 1.76967196 36.92855063 3.43809563 37.21459961 5.11352539 C36.21459961 6.11352539 36.21459961 6.11352539 32.42919922 6.22705078 C30.74177232 6.22689162 29.05434056 6.22119456 27.36694336 6.21118164 C26.03730309 6.20905922 26.03730309 6.20905922 24.68080139 6.20689392 C21.83786707 6.20127755 18.9950103 6.1887223 16.15209961 6.17602539 C14.2295747 6.1710125 12.30704856 6.16644923 10.38452148 6.16235352 C5.66118412 6.1513028 0.93790503 6.13402722 -3.78540039 6.11352539 C-4.16758806 4.45737882 -4.49935141 2.78895515 -4.78540039 1.11352539 C-3.78540039 0.11352539 -3.78540039 0.11352539 0 0 Z " fill="#F2F9EA" transform="translate(158.785400390625,185.886474609375)"/>
<path d="M0 0 C3.52744682 0.85916031 4.973663 2.54444741 6.97265625 5.48046875 C7.76046905 9.89222045 7.50240758 11.70239649 4.97265625 15.41796875 C0.82185311 18.27164591 -1.05745155 18.19045335 -6.02734375 17.48046875 C-8.52734375 15.98046875 -8.52734375 15.98046875 -10.02734375 13.48046875 C-10.61386179 8.86163922 -10.60077034 6.62732193 -8.52734375 2.48046875 C-5.66601138 0.19140286 -3.66131403 -0.25321237 0 0 Z " fill="#6CAE1C" transform="translate(68.02734375,183.51953125)"/>
<path d="M0 0 C4.45850936 0.79616239 5.90783917 1.93313458 8.5 5.625 C9.2878128 10.0367517 9.02975133 11.84692774 6.5 15.5625 C2.33082591 18.42880719 0.48902441 18.41690864 -4.5 17.625 C-7.74985922 14.94386615 -8.39575014 13.27366582 -9.0625 9.125 C-8.5 5.625 -8.5 5.625 -6.4375 2.6875 C-3.5 0.625 -3.5 0.625 0 0 Z " fill="#6FB11C" transform="translate(105.5,183.375)"/>
<path d="M0 0 C0.33 0 0.66 0 1 0 C1 10.23 1 20.46 1 31 C1.66 31 2.32 31 3 31 C3.33 32.32 3.66 33.64 4 35 C1.1007869 37.8992131 -0.98989316 39.30809006 -5.0625 39.4375 C-8.88515098 39.012761 -10.33955924 38.66044076 -13 36 C-11.25 32.125 -11.25 32.125 -9 31 C-8.67 31.66 -8.34 32.32 -8 33 C-6.00045254 33.04254356 -3.99958364 33.04080783 -2 33 C-0.0769111 31.0769111 -0.74678162 27.52929515 -0.68359375 24.90234375 C-0.66281265 24.19348526 -0.64203156 23.48462677 -0.62062073 22.75428772 C-0.55505402 20.48212695 -0.4962077 18.20984736 -0.4375 15.9375 C-0.39432151 14.40037817 -0.35070745 12.8632685 -0.30664062 11.32617188 C-0.19936551 7.5509041 -0.09811863 3.7755164 0 0 Z " fill="#D3D5DB" transform="translate(164,38)"/>
<path d="M0 0 C0.33 0.99 0.66 1.98 1 3 C-0.375 4.5 -0.375 4.5 -2 6 C-2.66 6 -3.32 6 -4 6 C-4 7.32 -4 8.64 -4 10 C-7.08298051 11.02766017 -9.33130426 11.16598738 -12.5625 11.1875 C-14.01849609 11.20876953 -14.01849609 11.20876953 -15.50390625 11.23046875 C-18 11 -18 11 -20 9 C-19.34 7.68 -18.68 6.36 -18 5 C-17.34 5.33 -16.68 5.66 -16 6 C-10.3803832 6.37464112 -6.878368 6.13609371 -2 3 C-1.34 2.01 -0.68 1.02 0 0 Z " fill="#77B724" transform="translate(201,129)"/>
<path d="M0 0 C16.17 0 32.34 0 49 0 C49 0.33 49 0.66 49 1 C37.12 1 25.24 1 13 1 C13 1.66 13 2.32 13 3 C13.66 3 14.32 3 15 3 C14.67 3.66 14.34 4.32 14 5 C13.01 4.34 12.02 3.68 11 3 C7.57982443 2.60041513 4.12706959 2.4364652 1 4 C0.67 2.68 0.34 1.36 0 0 Z " fill="#081B3B" transform="translate(59,182)"/>
<path d="M0 0 C0.99 0.33 1.98 0.66 3 1 C4.72795352 1.06802967 6.45835365 1.08495645 8.1875 1.0625 C9.08855469 1.05347656 9.98960937 1.04445312 10.91796875 1.03515625 C11.94857422 1.01775391 11.94857422 1.01775391 13 1 C12.67 1.99 12.34 2.98 12 4 C9.36 3.67 6.72 3.34 4 3 C3.67 3.99 3.34 4.98 3 6 C1.68 5.34 0.36 4.68 -1 4 C-0.67 2.68 -0.34 1.36 0 0 Z " fill="#83BF36" transform="translate(182,134)"/>
<path d="M0 0 C0 3 0 3 -1.3125 4.6875 C-3 6 -3 6 -6 6 C-6.66 7.32 -7.32 8.64 -8 10 C-8.66 10 -9.32 10 -10 10 C-8.5741914 6.54804233 -6.90253666 4.8985744 -3.875 2.75 C-3.15054688 2.22921875 -2.42609375 1.7084375 -1.6796875 1.171875 C-1.12539062 0.78515625 -0.57109375 0.3984375 0 0 Z " fill="#213352" transform="translate(99,6)"/>
<path d="M0 0 C0.33 0.99 0.66 1.98 1 3 C0.39671875 2.97679687 -0.2065625 2.95359375 -0.828125 2.9296875 C-1.62734375 2.91164062 -2.4265625 2.89359375 -3.25 2.875 C-4.43335937 2.84019531 -4.43335937 2.84019531 -5.640625 2.8046875 C-8.20731941 3.0171622 -9.7916067 3.71345895 -12 5 C-12 2 -12 2 -11 1 C-9.52738281 0.76657144 -8.04598558 0.58703535 -6.5625 0.4375 C-5.75941406 0.35371094 -4.95632812 0.26992187 -4.12890625 0.18359375 C-2 0 -2 0 0 0 Z " fill="#0B2B41" transform="translate(110,182)"/>
<path d="M0 0 C0.66 0.99 1.32 1.98 2 3 C1.25 6.125 1.25 6.125 0 9 C-0.99 9.495 -0.99 9.495 -2 10 C-1.85950482 8.52031676 -1.71245174 7.04125484 -1.5625 5.5625 C-1.48128906 4.73878906 -1.40007812 3.91507812 -1.31640625 3.06640625 C-1 1 -1 1 0 0 Z " fill="#84BB40" transform="translate(153,108)"/>
<path d="M0 0 C0.66 0 1.32 0 2 0 C4.67927341 4.01891012 4.15601248 6.24161923 4 11 C3.67 11 3.34 11 3 11 C3 8.69 3 6.38 3 4 C2.01 3.67 1.02 3.34 0 3 C0 2.01 0 1.02 0 0 Z " fill="#8EBE4C" transform="translate(235,92)"/>
</svg>
